<?xml version="1.0" encoding="UTF-8"?><svg id="Layer_2" xmlns="http://www.w3.org/2000/svg" viewBox="0 0 1239.87 240.08"><defs><style>.cls-1{fill:#fff;}</style></defs><g id="logo_black"><g><polygon class="cls-1" points="633.16 36.17 592.81 135.04 552.48 24.26 510.77 135.03 471.76 36.17 441.15 36.17 510.44 209.39 551.05 100.27 591.15 209.28 663.8 36.17 633.16 36.17"/><path class="cls-1" d="M644.87,195.19h30.75l16.88-37.23h62.79l16.19,37.23h30.7L725.46,23.8l-80.6,171.39Zm79.58-108.21l19.27,43.99h-39.32l20.05-43.99Z"/><path class="cls-1" d="M885.19,33.39c-24.1,0-42.33,6.6-57.37,20.77-11.63,11.01-25.49,30.71-25.49,62.09,0,24.33,8.34,43.96,25.49,60.01,10.55,10,28.86,21.93,56.22,21.93,8.82,0,26.2-1.55,43.54-11.9l1.17-.7v-34.91l-4.04,3.83c-8.26,7.82-21.89,17.15-39.97,17.15-30.8,0-54.03-23.82-54.03-55.41,0-33.17,22.12-56.34,53.79-56.34,14.83,0,27.99,5.39,40.25,16.49l4,3.62V45.57l-1.11-.71c-12.27-7.83-25.76-11.48-42.45-11.48Z"/><path class="cls-1" d="M1023.31,109.33c3.14-2.3,5.74-5.22,7.74-8.69,3.4-5.52,4.98-11.72,4.98-19.52,0-13.45-4.25-24-13.02-32.27-11.32-10.55-25.3-12.67-44.18-12.67h-25.75V195.19h41.01c13.71,0,32.64-2.74,44.99-15.78,7.49-7.95,10.82-17.02,10.82-29.39s-3.54-22.86-10.85-30.57c-4.26-4.39-9.64-7.83-15.75-10.12Zm-1.31,38.15c0,6.08-2.58,11.92-6.74,15.25-6.3,5.09-18.32,5.48-21.85,5.48h-11.94v-41.46h12.41c8.37,0,16.91,.76,22.59,6.24,3.47,3.47,5.54,8.89,5.54,14.49Zm-40.53-44.94V63.15h5.7c7.04,0,12.63,.87,17.08,5.12,4.24,4.03,4.81,8.87,4.81,13.06,0,4.64-.55,11.32-5.28,15.84-5,4.79-12.4,5.35-17.53,5.35h-4.77Z"/><rect class="cls-1" x="1072.4" y="36.17" width="28.37" height="159.02"/><polygon class="cls-1" points="1239.87 36.17 1131.6 36.17 1131.6 63.15 1193.21 63.15 1117.37 195.19 1236.28 195.19 1236.28 168.2 1164.03 168.2 1239.87 36.17"/></g><path class="cls-1" d="M415.5,73.31c-6.05-14.3-14.7-27.13-25.71-38.15-11.01-11.01-23.85-19.67-38.15-25.71C336.83,3.18,321.1,0,304.91,0s-31.56,3.1-46.22,9.22C244.03,3.12,228.48,0,212.48,0s-31.55,3.11-46.22,9.23C151.59,3.11,136.05,0,120.04,0s-31.91,3.18-46.73,9.44c-14.3,6.05-27.13,14.7-38.15,25.71-11.02,11.02-19.67,23.85-25.71,38.15C3.18,88.13,0,103.85,0,120.05s3.18,31.91,9.45,46.73c6.05,14.3,14.7,27.13,25.71,38.15,11.01,11.02,23.85,19.67,38.15,25.71,14.82,6.27,30.54,9.45,46.73,9.45s31.55-3.1,46.22-9.23c14.66,6.13,30.21,9.23,46.22,9.23s31.55-3.11,46.22-9.22h.02c14.66,6.12,30.2,9.22,46.2,9.22s31.91-3.18,46.73-9.45c14.3-6.05,27.13-14.7,38.15-25.71,11.02-11.01,19.67-23.85,25.71-38.15,6.27-14.82,9.45-30.54,9.45-46.73s-3.18-31.91-9.45-46.73Zm-249.27,126.81c-.45,.25-.91,.51-1.37,.77-.05,.03-.1,.05-.15,.08-.1,.06-.21,.12-.31,.18-.51,.28-1.02,.55-1.53,.82-.11,.06-.22,.12-.34,.18-.41,.21-.84,.43-1.26,.64-.26,.14-.52,.27-.78,.39-.35,.17-.7,.34-1.04,.5-.41,.2-.83,.39-1.24,.58-.07,.04-.14,.07-.21,.09-.58,.27-1.17,.53-1.76,.78-.18,.08-.35,.15-.53,.22-.47,.2-.94,.39-1.41,.58-.21,.09-.43,.18-.64,.26-.4,.15-.8,.31-1.2,.46-.31,.12-.62,.23-.93,.34-.06,.02-.12,.04-.18,.06-.17,.06-.35,.13-.52,.19-.42,.15-.85,.3-1.28,.44-.02,0-.04,.02-.06,.02-.38,.13-.77,.26-1.16,.38-.08,.03-.17,.06-.25,.08-.51,.17-1.04,.33-1.57,.48-.08,.03-.18,.05-.26,.08-.4,.12-.79,.24-1.19,.35-2.74,.77-5.53,1.41-8.37,1.93-.54,.1-1.08,.19-1.63,.28-.06,0-.13,.02-.19,.03-.1,.02-.21,.04-.31,.05-4.73,.75-9.57,1.14-14.5,1.14-51.05,0-92.44-41.39-92.44-92.44S68.99,27.61,120.04,27.61c4.93,0,9.78,.38,14.5,1.13,.58,.09,1.15,.19,1.73,.29,.06,0,.12,.02,.17,.03,.61,.11,1.21,.22,1.82,.35,.38,.08,.75,.15,1.12,.23,.45,.09,.91,.19,1.35,.3,.21,.05,.41,.09,.62,.15,.51,.12,1.01,.24,1.5,.37,.25,.06,.51,.12,.76,.19,.16,.05,.32,.08,.48,.13,.05,.02,.12,.03,.17,.05,.37,.1,.72,.2,1.09,.3,.61,.18,1.21,.35,1.82,.54,.41,.12,.82,.25,1.23,.39,.18,.05,.37,.12,.54,.18,.18,.06,.37,.12,.54,.18,.18,.05,.36,.12,.53,.18,.28,.09,.54,.18,.82,.28,.27,.08,.53,.18,.78,.28,.18,.06,.38,.13,.56,.2,.08,.03,.16,.06,.24,.09,.38,.13,.74,.28,1.11,.42,.29,.11,.58,.22,.87,.35,.45,.18,.9,.36,1.34,.55,.02,0,.04,.02,.06,.02,.18,.07,.35,.14,.52,.22,0,0,.02,0,.02,0,.32,.13,.64,.27,.95,.41,.07,.02,.13,.05,.19,.08,.35,.15,.68,.3,1.02,.46,.38,.17,.75,.35,1.13,.53,.22,.1,.44,.2,.65,.31,.05,.02,.1,.05,.15,.08,.33,.15,.66,.31,.97,.48,.02,0,.02,.02,.04,.02,.07,.03,.13,.07,.2,.1,.39,.2,.79,.4,1.18,.61,.54,.28,1.08,.57,1.61,.86,.05,.02,.1,.05,.15,.08,.56,.31,1.12,.63,1.67,.95,12.12,7.01,22.51,16.7,30.34,28.25,10.02,14.77,15.88,32.61,15.88,51.81s-5.86,37.03-15.88,51.8c-7.83,11.56-18.22,21.25-30.34,28.26,0,0-.02,0-.02,.02Zm46.24,12.35c-2.52,0-5.02-.1-7.48-.3-.3-.02-.59-.05-.88-.08-.86-.08-1.71-.16-2.56-.27-.6-.07-1.19-.15-1.79-.23-.54-.07-1.08-.15-1.63-.24-.05,0-.11,0-.15-.02,2.39-2.04,4.7-4.18,6.94-6.42,2.66-2.66,5.18-5.43,7.55-8.29,6.31-7.58,11.62-15.88,15.88-24.79,.8-1.67,1.57-3.36,2.29-5.07,6.26-14.82,9.44-30.54,9.44-46.73s-3.18-31.91-9.44-46.73c-.72-1.71-1.49-3.41-2.29-5.08-4.26-8.91-9.57-17.2-15.88-24.78-2.37-2.87-4.89-5.63-7.55-8.3-2.24-2.24-4.56-4.37-6.94-6.42,.05-.02,.1-.02,.15-.02,.54-.08,1.08-.17,1.63-.24,.6-.08,1.19-.16,1.79-.23,.85-.11,1.7-.19,2.56-.27,.29-.03,.58-.05,.88-.08,2.46-.2,4.96-.3,7.48-.3,4.93,0,9.78,.38,14.5,1.13h0c11.4,1.8,22.09,5.67,31.71,11.23,0,0,0,0,0,0,2.23,1.29,4.4,2.67,6.51,4.14,1.17,.81,2.32,1.65,3.45,2.52,.38,.29,.75,.58,1.12,.87h0c.78,.61,1.53,1.24,2.29,1.88,1.9,1.6,3.73,3.28,5.49,5.03,.71,.7,1.4,1.4,2.07,2.13,.49,.51,.97,1.04,1.45,1.57,.48,.53,.95,1.06,1.41,1.6,.53,.61,1.04,1.22,1.54,1.84,.37,.45,.73,.89,1.08,1.34,.12,.14,.22,.28,.32,.41,.36,.47,.72,.94,1.07,1.41,.41,.54,.81,1.09,1.2,1.64,.25,.35,.51,.71,.75,1.07,.41,.59,.81,1.18,1.2,1.78,.06,.09,.12,.18,.17,.26,.21,.32,.41,.64,.62,.96,.31,.48,.61,.97,.91,1.46,.36,.59,.71,1.18,1.05,1.77,.32,.54,.63,1.09,.94,1.64,.42,.76,.83,1.52,1.23,2.29,.24,.46,.47,.92,.69,1.38,.14,.27,.27,.54,.4,.81,.02,.04,.05,.08,.06,.13,.23,.46,.45,.93,.67,1.4,.25,.54,.5,1.09,.74,1.63,.11,.25,.21,.49,.31,.73,.24,.54,.46,1.07,.68,1.61,.28,.68,.54,1.35,.79,2.03,.23,.59,.45,1.17,.65,1.77,.06,.15,.11,.3,.16,.45,.22,.63,.43,1.26,.64,1.9,.22,.68,.43,1.35,.64,2.03,.23,.78,.45,1.55,.66,2.33,.18,.65,.35,1.31,.51,1.97,.15,.61,.3,1.23,.44,1.84,.05,.18,.08,.38,.12,.57,.15,.63,.28,1.27,.4,1.91,.14,.69,.27,1.39,.39,2.09,0,.07,.02,.13,.03,.19,.12,.7,.23,1.4,.34,2.1,0,.02,0,.03,0,.05,.11,.73,.2,1.46,.29,2.19,.08,.71,.17,1.41,.23,2.13,.02,.12,.03,.24,.04,.35,.07,.67,.12,1.34,.17,2.02,.06,.75,.11,1.51,.14,2.27,.04,.72,.07,1.44,.08,2.16,0,.08,.02,.17,0,.25,.02,.72,.03,1.44,.03,2.16,0,.54,0,1.07-.02,1.6,0,.58-.02,1.17-.05,1.75-.02,.48-.04,.95-.06,1.43-.02,.46-.05,.92-.08,1.38-.08,1.12-.17,2.23-.28,3.34-.05,.5-.11,.99-.16,1.48,0,.09-.02,.18-.03,.26-.05,.46-.12,.91-.18,1.37-.06,.46-.13,.91-.2,1.36-.22,1.51-.49,3-.79,4.48-.07,.34-.14,.67-.21,1.01-.38,1.77-.8,3.52-1.28,5.25-.14,.49-.28,.98-.42,1.47-.1,.35-.21,.7-.31,1.04-.11,.35-.22,.71-.34,1.07-.08,.29-.18,.58-.28,.87-.15,.45-.31,.91-.47,1.36-.17,.48-.34,.95-.51,1.43-.9,2.45-1.9,4.84-2.99,7.18-.28,.58-.55,1.17-.84,1.73-.23,.47-.47,.94-.71,1.4-.12,.23-.24,.46-.36,.69-.31,.58-.61,1.15-.94,1.73-.03,.06-.06,.12-.1,.18-.38,.68-.76,1.34-1.15,2.01-.02,.02-.03,.05-.05,.08-.38,.66-.78,1.31-1.19,1.96-.41,.68-.84,1.34-1.29,2-.17,.27-.35,.53-.52,.79-.4,.59-.8,1.17-1.21,1.75-.45,.63-.91,1.26-1.37,1.88-.35,.48-.71,.94-1.07,1.41-.07,.09-.14,.18-.21,.26-.16,.21-.32,.41-.49,.62-.38,.48-.77,.96-1.17,1.43-.15,.19-.31,.38-.48,.56-.28,.35-.58,.69-.88,1.04-.19,.22-.38,.45-.58,.66-.11,.12-.21,.25-.33,.37-.36,.41-.73,.81-1.1,1.21-.07,.08-.14,.16-.22,.24-.45,.49-.91,.97-1.38,1.45-.74,.76-1.49,1.5-2.26,2.24-.53,.51-1.06,1.01-1.6,1.5-.62,.57-1.24,1.13-1.88,1.67-.64,.55-1.27,1.09-1.92,1.62-.77,.63-1.54,1.24-2.33,1.84-3.15,2.42-6.46,4.63-9.91,6.63,0,0,0,0,0,0-9.61,5.56-20.31,9.44-31.71,11.23-4.73,.74-9.57,1.14-14.5,1.14Zm92.44,0c-.73,0-1.47,0-2.19-.03h-.24c-.64-.02-1.28-.04-1.92-.08-.06,0-.13,0-.19,0s-.12,0-.18,0h-.08c-.73-.04-1.45-.08-2.16-.14-.31-.02-.64-.05-.94-.08-.09,0-.18-.02-.27-.02-.36-.02-.71-.06-1.07-.1-.25-.02-.48-.05-.73-.08-.39-.04-.79-.08-1.18-.14-.45-.05-.88-.1-1.32-.17-.22-.02-.45-.05-.67-.09-.03,0-.05,0-.08-.02-.36-.05-.73-.09-1.09-.15-.03,0-.06,0-.09-.02-.03,0-.06,0-.09-.02,2.39-2.04,4.7-4.17,6.94-6.42,11.02-11.02,19.67-23.86,25.71-38.15,6.27-14.82,9.45-30.54,9.45-46.74s-3.18-31.91-9.45-46.73c-6.05-14.3-14.7-27.13-25.71-38.15-2.24-2.24-4.54-4.37-6.93-6.42,.51-.08,1.02-.16,1.53-.22,.02,0,.04,0,.06-.02,.11-.02,.22-.03,.33-.05l.21-.02c.42-.06,.85-.12,1.27-.16,.18-.03,.38-.05,.56-.07,.43-.05,.87-.1,1.3-.15,.58-.05,1.17-.11,1.75-.15,.2-.02,.41-.03,.61-.05,.57-.05,1.14-.08,1.72-.11,.11,0,.21,0,.31-.02,.05,0,.09,0,.15,0,.1,0,.19-.02,.29-.02,.64-.04,1.3-.05,1.95-.08h.18c.07,0,.13,0,.2,0,.68-.02,1.38-.02,2.07-.02,51.04,0,92.43,41.38,92.43,92.44s-41.38,92.44-92.43,92.44Z"/></g></svg>